<svg version="1.2" xmlns="http://www.w3.org/2000/svg" viewBox="0 0 1544 815" width="1544" height="815">
	<title>Arco 4Q22 Earnings Presentation-1-pdf-svg</title>
	<defs>
		<clipPath clipPathUnits="userSpaceOnUse" id="cp1">
			<path d="m-797.84-188.91h3139.05v1764.72h-3139.05z"/>
		</clipPath>
	</defs>
	<style>
		.s0 { fill: #071636 } 
		.s1 { fill: #f05038 } 
		.s2 { fill: #437fc2 } 
	</style>
	<g id="Clip-Path: Page 1" clip-path="url(#cp1)">
		<g id="Page 1">
			<path id="Path 4" fill-rule="evenodd" class="s0" d="m131 497.7c-12.1 3.8-28.7 12.1-48.6 25.5l-62-42.8c34.5-41.5 93.4-72.1 168.8-72.1 111.1 0 170.5 70.3 170.5 178.8v220.1h-69c-4.4 0-7-2-8.3-5.7l-10.2-28.1c-35.8 23.6-85 41.5-128.3 41.5-93.4 0-143.9-43.5-143.9-121.3 0-77.3 76.7-120.6 177.1-120.6 16.5 0 34.5 1.2 43.3 2.5v61.9c-6.4-0.6-20.9-1.3-31.2-1.3-66.4 0-99.8 14-99.8 52.9 0 31.4 23.7 48.6 64 48.6 38.4 0 70.3-10.8 114.4-38.9v-110.5c0-61.9-28.8-96.9-90.1-96.9-22.4 0-35.8 3.1-46.7 6.4zm1412.5 113.6c0 112.2-90.7 203.6-205 203.6-114.4 0-205.2-90.7-205.2-203 0-112.4 90.8-203.6 205.2-203.6 114.3 0 205 90.5 205 203zm-102.2 0c0-68.3-44.8-113.6-102.8-113.6-58.2 0-102.8 45.9-102.8 114.2 0 68.3 44.6 113.6 102.8 113.6 58 0 102.8-45.9 102.8-114.2zm-460.7 107.8c13.4-5.7 30.1-12.7 50.5-28.1l65.3 47.2c-36.5 47.2-88.3 76.7-163 76.7-124.6 0-202.4-90.1-202.4-205.6 0-118.6 91.9-201 196-201 75.4 0 126.5 28.1 163 76l-65.9 47.9c-21.1-14.7-37.1-21.8-50.3-27.5-11-4.6-24.4-7-41.7-7-56.8 0-97.6 49.7-97.6 114.2 0 64.4 38.9 113.6 101.5 113.6 17.8 0 32.5-1.3 44.6-6.4zm-528.9 88.1v-389.1h67.7c4.6 0 7 2 8.4 5.7l10.1 28.1c39.7-23.5 91.4-43.3 132.9-43.3 11 0 26.2 0.7 38.9 3.1l-36.3 88.8c-33.8-2.5-88.8 7.7-122.6 32.5v274.2z"/>
			<path id="Path 5" class="s1" d="m757.1 27.9c0.2-5.7-1.3-13.2-11.1-21.2-10.3-7.4-18-6.9-23.5-5.2l-267.5 72.3c0 0 43.7 82.1 117.4 52.5 73.6-29.6 147.3-85.3 147.3-85.3 0 0-34.3 85.8-43.8 164.5-9.3 78.6 81.6 99.2 81.6 99.2z"/>
			<path id="Path 6" class="s2" d="m818.8 1.5c-5.4-1.7-13.1-2.2-23.4 5.2-9.8 8-11.3 15.5-11.1 21.2l-0.4 276.8c0 0 90.8-20.6 81.5-99.2-9.4-78.7-43.7-164.5-43.7-164.5 0 0 73.7 55.7 147.3 85.3 73.6 29.6 117.4-52.5 117.4-52.5z"/>
		</g>
	</g>
</svg>